<svg width="400" height="479" viewBox="0 0 400 479" fill="none" xmlns="http://www.w3.org/2000/svg">
<path d="M193 13H208V98H193V13Z" fill="#FFC309"/>
<path d="M0 284C0 272.954 8.95431 264 20 264H80C91.0457 264 100 272.954 100 284V459C100 470.046 91.0457 479 80 479H20C8.9543 479 0 470.046 0 459V284Z" fill="#FFC309"/>
<path d="M300 284C300 272.954 308.954 264 320 264H380C391.046 264 400 272.954 400 284V459C400 470.046 391.046 479 380 479H320C308.954 479 300 470.046 300 459V284Z" fill="#FFC309"/>
<path d="M193 10C193 4.47715 197.477 0 203 0H254C259.523 0 264 4.47715 264 10V31C264 36.5228 259.523 41 254 41H203C197.477 41 193 36.5228 193 31V10Z" fill="#FFC309"/>
<path fill-rule="evenodd" clip-rule="evenodd" d="M185.347 88.7746C193.259 80.257 206.741 80.2569 214.653 88.7746L293.485 173.638C305.371 186.434 296.128 207 278.663 207H237.602C232.016 191.23 217.289 179.967 200 179.967C182.711 179.967 167.984 191.23 162.398 207H121C103.535 207 94.6285 186.434 106.515 173.638L185.347 88.7746ZM162.398 207H125V459C125 470.046 133.954 479 145 479H255C266.046 479 275 470.046 275 459V207L237.602 207H162.398C162.398 207 162.398 207 162.398 207ZM162.398 207L237.602 207C239.154 211.381 240 216.109 240 221.04C240 243.725 222.091 262.114 200 262.114C177.909 262.114 160 243.725 160 221.04C160 216.109 160.846 211.381 162.398 207Z" fill="#FFC309"/>
</svg>
