<svg width="642" height="116" viewBox="0 0 642 116" fill="none" xmlns="http://www.w3.org/2000/svg">
<path d="M628.191 112.948C624.399 112.948 621.134 111.631 618.395 108.998C615.762 106.259 614.445 102.994 614.445 99.202C614.445 95.41 615.762 92.1973 618.395 89.564C621.134 86.9307 624.399 85.614 628.191 85.614C631.983 85.614 635.196 86.9307 637.829 89.564C640.463 92.1973 641.779 95.41 641.779 99.202C641.779 102.994 640.463 106.259 637.829 108.998C635.196 111.631 631.983 112.948 628.191 112.948Z" fill="#FFC309"/>
<path d="M35.708 115.656C30.652 115.656 26.1227 115.024 22.12 113.76C18.2227 112.496 14.7993 110.863 11.85 108.862C9.006 106.755 6.58333 104.385 4.582 101.752C2.58067 99.0133 1.05333 96.2747 0 93.536L18.486 85.636C20.2767 89.6387 22.6467 92.6407 25.596 94.642C28.6507 96.538 32.0213 97.486 35.708 97.486C39.5 97.486 42.502 96.8013 44.714 95.432C46.926 94.0627 48.032 92.43 48.032 90.534C48.032 88.4273 47.084 86.742 45.188 85.478C43.3973 84.1087 40.2373 82.8973 35.708 81.844L24.806 79.474C22.3833 78.9473 19.8553 78.1047 17.222 76.946C14.694 75.7873 12.3767 74.3127 10.27 72.522C8.16333 70.7313 6.42533 68.572 5.056 66.044C3.68667 63.516 3.002 60.5667 3.002 57.196C3.002 53.404 3.792 50.0333 5.372 47.084C7.05733 44.1347 9.322 41.6593 12.166 39.658C15.01 37.5513 18.328 35.9713 22.12 34.918C26.0173 33.7593 30.178 33.18 34.602 33.18C41.9753 33.18 48.5587 34.6547 54.352 37.604C60.1453 40.448 64.4113 45.03 67.15 51.35L49.296 58.618C47.8213 55.5633 45.662 53.3513 42.818 51.982C39.974 50.6127 37.13 49.928 34.286 49.928C31.3367 49.928 28.756 50.56 26.544 51.824C24.332 52.9827 23.226 54.51 23.226 56.406C23.226 58.1967 24.1213 59.6187 25.912 60.672C27.808 61.7253 30.336 62.6733 33.496 63.516L45.346 66.36C53.246 68.256 59.092 71.3107 62.884 75.524C66.7813 79.632 68.73 84.53 68.73 90.218C68.73 93.5887 67.94 96.8013 66.36 99.856C64.78 102.911 62.5153 105.649 59.566 108.072C56.722 110.389 53.246 112.233 49.138 113.602C45.1353 114.971 40.6587 115.656 35.708 115.656Z" fill="black"/>
<path d="M155.674 93.378C152.304 99.9087 147.564 105.281 141.454 109.494C135.45 113.602 127.919 115.656 118.86 115.656C112.856 115.656 107.326 114.655 102.27 112.654C97.3198 110.547 93.0011 107.651 89.3144 103.964C85.7331 100.277 82.8891 95.9587 80.7824 91.008C78.7811 85.952 77.7804 80.422 77.7804 74.418C77.7804 68.414 78.7811 62.884 80.7824 57.828C82.8891 52.772 85.7331 48.4533 89.3144 44.872C93.0011 41.1853 97.3198 38.3413 102.27 36.34C107.326 34.2333 112.856 33.18 118.86 33.18C127.814 33.18 135.345 35.234 141.454 39.342C147.564 43.45 152.04 48.7693 154.884 55.3L135.924 63.2C134.134 59.6187 131.816 56.9327 128.972 55.142C126.234 53.246 122.758 52.298 118.544 52.298C115.806 52.298 113.225 52.8247 110.802 53.878C108.38 54.9313 106.22 56.406 104.324 58.302C102.534 60.198 101.112 62.5153 100.058 65.254C99.0051 67.9927 98.4784 71.0473 98.4784 74.418C98.4784 77.7887 99.0051 80.8433 100.058 83.582C101.112 86.3207 102.534 88.638 104.324 90.534C106.22 92.43 108.38 93.9047 110.802 94.958C113.225 96.0113 115.806 96.538 118.544 96.538C122.863 96.538 126.497 95.59 129.446 93.694C132.501 91.6927 134.924 88.8487 136.714 85.162L155.674 93.378Z" fill="black"/>
<path d="M168.302 10H189V55.82C191.212 52.1333 194.372 49.1313 198.48 46.814C202.693 44.3913 207.381 43.18 212.542 43.18C222.549 43.18 229.922 46.1293 234.662 52.028C239.507 57.9267 241.93 65.9847 241.93 76.202V113.128H221.232V78.73C221.232 73.358 219.968 69.3027 217.44 66.564C214.912 63.72 211.383 62.298 206.854 62.298C204.01 62.298 201.482 62.93 199.27 64.194C197.058 65.3527 195.162 66.9853 193.582 69.092C192.107 71.1987 190.949 73.674 190.106 76.518C189.369 79.2567 189 82.206 189 85.366V113.128H168.302V10Z" fill="black"/>
<path d="M295.685 33.18C301.689 33.18 307.166 34.2333 312.117 36.34C317.173 38.3413 321.491 41.1853 325.073 44.872C328.759 48.4533 331.603 52.772 333.605 57.828C335.711 62.884 336.765 68.414 336.765 74.418C336.765 80.422 335.711 85.952 333.605 91.008C331.603 96.064 328.759 100.435 325.073 104.122C321.491 107.703 317.173 110.547 312.117 112.654C307.166 114.655 301.689 115.656 295.685 115.656C289.681 115.656 284.151 114.655 279.095 112.654C274.144 110.547 269.825 107.703 266.139 104.122C262.557 100.435 259.713 96.064 257.607 91.008C255.605 85.952 254.605 80.422 254.605 74.418C254.605 68.414 255.605 62.884 257.607 57.828C259.713 52.772 262.557 48.4533 266.139 44.872C269.825 41.1853 274.144 38.3413 279.095 36.34C284.151 34.2333 289.681 33.18 295.685 33.18ZM295.685 96.538C298.318 96.538 300.846 96.064 303.269 95.116C305.797 94.0627 308.009 92.588 309.905 90.692C311.801 88.796 313.275 86.4787 314.329 83.74C315.487 81.0013 316.067 77.894 316.067 74.418C316.067 70.942 315.487 67.8347 314.329 65.096C313.275 62.3573 311.801 60.04 309.905 58.144C308.009 56.248 305.797 54.826 303.269 53.878C300.846 52.8247 298.318 52.298 295.685 52.298C292.946 52.298 290.365 52.8247 287.943 53.878C285.52 54.826 283.361 56.248 281.465 58.144C279.569 60.04 278.041 62.3573 276.883 65.096C275.829 67.8347 275.303 70.942 275.303 74.418C275.303 77.894 275.829 81.0013 276.883 83.74C278.041 86.4787 279.569 88.796 281.465 90.692C283.361 92.588 285.52 94.0627 287.943 95.116C290.365 96.064 292.946 96.538 295.685 96.538Z" fill="black"/>
<path d="M386.72 33.18C392.724 33.18 398.201 34.2333 403.152 36.34C408.208 38.3413 412.526 41.1853 416.108 44.872C419.794 48.4533 422.638 52.772 424.64 57.828C426.746 62.884 427.8 68.414 427.8 74.418C427.8 80.422 426.746 85.952 424.64 91.008C422.638 96.064 419.794 100.435 416.108 104.122C412.526 107.703 408.208 110.547 403.152 112.654C398.201 114.655 392.724 115.656 386.72 115.656C380.716 115.656 375.186 114.655 370.13 112.654C365.179 110.547 360.86 107.703 357.174 104.122C353.592 100.435 350.748 96.064 348.642 91.008C346.64 85.952 345.64 80.422 345.64 74.418C345.64 68.414 346.64 62.884 348.642 57.828C350.748 52.772 353.592 48.4533 357.174 44.872C360.86 41.1853 365.179 38.3413 370.13 36.34C375.186 34.2333 380.716 33.18 386.72 33.18ZM386.72 96.538C389.353 96.538 391.881 96.064 394.304 95.116C396.832 94.0627 399.044 92.588 400.94 90.692C402.836 88.796 404.31 86.4787 405.364 83.74C406.522 81.0013 407.102 77.894 407.102 74.418C407.102 70.942 406.522 67.8347 405.364 65.096C404.31 62.3573 402.836 60.04 400.94 58.144C399.044 56.248 396.832 54.826 394.304 53.878C391.881 52.8247 389.353 52.298 386.72 52.298C383.981 52.298 381.4 52.8247 378.978 53.878C376.555 54.826 374.396 56.248 372.5 58.144C370.604 60.04 369.076 62.3573 367.918 65.096C366.864 67.8347 366.338 70.942 366.338 74.418C366.338 77.894 366.864 81.0013 367.918 83.74C369.076 86.4787 370.604 88.796 372.5 90.692C374.396 92.588 376.555 94.0627 378.978 95.116C381.4 96.064 383.981 96.538 386.72 96.538Z" fill="black"/>
<path d="M440.327 113.128V0H461.025V113.128H440.327Z" fill="black"/>
<path d="M551.288 94.484C547.707 100.804 542.861 105.913 536.752 109.81C530.748 113.707 523.375 115.656 514.632 115.656C508.733 115.656 503.256 114.655 498.2 112.654C493.249 110.547 488.931 107.651 485.244 103.964C481.557 100.277 478.661 95.9587 476.554 91.008C474.553 85.952 473.552 80.422 473.552 74.418C473.552 68.8353 474.553 63.5687 476.554 58.618C478.555 53.562 481.347 49.1907 484.928 45.504C488.509 41.712 492.723 38.71 497.568 36.498C502.519 34.286 507.943 33.18 513.842 33.18C520.057 33.18 525.587 34.2333 530.432 36.34C535.277 38.3413 539.333 41.1853 542.598 44.872C545.863 48.4533 548.339 52.7193 550.024 57.67C551.709 62.6207 552.552 67.9927 552.552 73.786C552.552 74.5233 552.552 75.1553 552.552 75.682C552.447 76.314 552.394 76.8933 552.394 77.42C552.289 77.9467 552.236 78.526 552.236 79.158H493.934C494.355 82.318 495.198 85.0567 496.462 87.374C497.831 89.586 499.464 91.482 501.36 93.062C503.361 94.5367 505.521 95.6427 507.838 96.38C510.155 97.012 512.525 97.328 514.948 97.328C519.688 97.328 523.585 96.2747 526.64 94.168C529.8 91.956 532.275 89.2173 534.066 85.952L551.288 94.484ZM532.486 64.464C532.381 63.0947 531.907 61.5673 531.064 59.882C530.327 58.1967 529.168 56.6167 527.588 55.142C526.113 53.6673 524.217 52.456 521.9 51.508C519.688 50.56 517.002 50.086 513.842 50.086C509.418 50.086 505.521 51.35 502.15 53.878C498.779 56.406 496.409 59.9347 495.04 64.464H532.486Z" fill="black"/>
<path d="M565.771 35.708H585.205V46.452H586.469C587.417 44.556 588.681 42.818 590.261 41.238C591.841 39.658 593.579 38.2887 595.475 37.13C597.476 35.9713 599.583 35.076 601.795 34.444C604.112 33.812 606.377 33.496 608.589 33.496C611.328 33.496 613.645 33.7593 615.541 34.286C617.542 34.8127 619.228 35.4973 620.597 36.34L615.067 55.142C613.803 54.51 612.381 54.036 610.801 53.72C609.326 53.2987 607.483 53.088 605.271 53.088C602.427 53.088 599.846 53.6673 597.529 54.826C595.212 55.8793 593.21 57.4067 591.525 59.408C589.945 61.4093 588.681 63.7793 587.733 66.518C586.89 69.1513 586.469 72.048 586.469 75.208V113.128H565.771V35.708Z" fill="black"/>
</svg>
